{
  "accessors": [
    {
      "bufferView": 2,
      "componentType": 5126,
      "count": 6162,
      "max": [
        42.123687744140625,
        2.12565016746521,
        2.664285898208618
      ],
      "min": [
        4.483005046844482,
        -2.1256484985351563,
        0.24408912658691406
      ],
      "type": "VEC3"
    },
    {
      "bufferView": 2,
      "byteOffset": 73944,
      "componentType": 5126,
      "count": 6162,
      "max": [
        0.995761513710022,
        1.0,
        1.0
      ],
      "min": [
        -0.9972996711730957,
        -1.0,
        -1.0
      ],
      "type": "VEC3"
    },
    {
      "bufferView": 1,
      "componentType": 5126,
      "count": 6162,
      "max": [
        0.9935142993927002,
        0.3169076442718506
      ],
      "min": [
        0.7347233295440674,
        0.006692526396363974
      ],
      "type": "VEC2"
    },
    {
      "bufferView": 0,
      "componentType": 5125,
      "count": 30600,
      "type": "SCALAR"
    },
    {
      "bufferView": 2,
      "byteOffset": 147888,
      "componentType": 5126,
      "count": 5537,
      "max": [
        49.01700973510742,
        19.027118682861328,
        3.2109780311584473
      ],
      "min": [
        -124.50152587890625,
        -19.027118682861328,
        -0.302614688873291
      ],
      "type": "VEC3"
    },
    {
      "bufferView": 2,
      "byteOffset": 214332,
      "componentType": 5126,
      "count": 5537,
      "max": [
        1.0,
        1.0,
        1.0
      ],
      "min": [
        -1.0,
        -1.0,
        -1.0
      ],
      "type": "VEC3"
    },
    {
      "bufferView": 1,
      "byteOffset": 49296,
      "componentType": 5126,
      "count": 5537,
      "max": [
        0.9738909602165222,
        0.9885714650154114
      ],
      "min": [
        0.013112024404108524,
        0.007522077765315771
      ],
      "type": "VEC2"
    },
    {
      "bufferView": 0,
      "byteOffset": 122400,
      "componentType": 5125,
      "count": 21078,
      "type": "SCALAR"
    }
  ],
  "asset": {
    "extras": {
      "author": "Yudha Mfr (https://sketchfab.com/yudhamfr)",
      "license": "CC-BY-4.0 (http://creativecommons.org/licenses/by/4.0/)",
      "source": "https://sketchfab.com/3d-models/steel-of-wyzoda-f7323ac511ad496bbe2d8e5e5ad00095",
      "title": "Steel Of WyZoda"
    },
    "generator": "Sketchfab-14.64.0",
    "version": "2.0"
  },
  "bufferViews": [
    {
      "buffer": 0,
      "byteLength": 206712,
      "name": "floatBufferViews",
      "target": 34963
    },
    {
      "buffer": 0,
      "byteLength": 93592,
      "byteOffset": 206712,
      "byteStride": 8,
      "name": "floatBufferViews",
      "target": 34962
    },
    {
      "buffer": 0,
      "byteLength": 280776,
      "byteOffset": 300304,
      "byteStride": 12,
      "name": "floatBufferViews",
      "target": 34962
    }
  ],
  "buffers": [
    {
      "byteLength": 581080,
      "uri": "scene.bin"
    }
  ],
  "extensionsUsed": [
    "KHR_materials_specular"
  ],
  "images": [
    {
      "uri": "textures/02_-_Default_baseColor.jpeg"
    },
    {
      "uri": "textures/02_-_Default_metallicRoughness.png"
    }
  ],
  "materials": [
    {
      "doubleSided": true,
      "extensions": {
        "KHR_materials_specular": {
          "specularColorFactor": [
            1.0,
            1.0,
            1.0
          ],
          "specularFactor": 1.0
        }
      },
      "name": "02_-_Default",
      "pbrMetallicRoughness": {
        "baseColorTexture": {
          "index": 0
        },
        "metallicFactor": 0.0,
        "metallicRoughnessTexture": {
          "index": 1
        }
      }
    },
    {
      "doubleSided": true,
      "extensions": {
        "KHR_materials_specular": {
          "specularColorFactor": [
            1.0,
            1.0,
            1.0
          ],
          "specularFactor": 0.7908595530957808
        }
      },
      "name": "01_-_Default",
      "pbrMetallicRoughness": {
        "baseColorTexture": {
          "index": 0
        },
        "metallicRoughnessTexture": {
          "index": 1
        },
        "roughnessFactor": 0.6689544196706123
      }
    }
  ],
  "meshes": [
    {
      "name": "Spring002_02 - Default_0",
      "primitives": [
        {
          "attributes": {
            "NORMAL": 1,
            "POSITION": 0,
            "TEXCOORD_0": 2
          },
          "indices": 3,
          "material": 0,
          "mode": 4
        }
      ]
    },
    {
      "name": "Spring002_01 - Default_0",
      "primitives": [
        {
          "attributes": {
            "NORMAL": 5,
            "POSITION": 4,
            "TEXCOORD_0": 6
          },
          "indices": 7,
          "material": 1,
          "mode": 4
        }
      ]
    }
  ],
  "nodes": [
    {
      "children": [
        1
      ],
      "matrix": [
        -0.8353874087333679,
        0.5019928216934204,
        -0.22389975190162648,
        0.0,
        0.5492286086082458,
        0.7785032987594606,
        -0.3037770986557005,
        0.0,
        0.021812785416841507,
        -0.37674370408058144,
        -0.9260606765747071,
        0.0,
        0.0,
        0.0,
        0.0,
        1.0
      ],
      "name": "Sketchfab_model"
    },
    {
      "children": [
        2
      ],
      "matrix": [
        0.02539999969303608,
        0.0,
        0.0,
        0.0,
        0.0,
        0.0,
        0.02539999969303608,
        0.0,
        0.0,
        -0.02539999969303608,
        0.0,
        0.0,
        0.0,
        0.0,
        0.0,
        1.0
      ],
      "name": "1ba8c29b1f2949cf94d682d455267dd1.fbx"
    },
    {
      "children": [
        3
      ],
      "name": "RootNode"
    },
    {
      "children": [
        4,
        5
      ],
      "matrix": [
        1.0,
        0.0,
        0.0,
        0.0,
        0.0,
        2.220446049250313e-16,
        -1.0,
        0.0,
        0.0,
        1.0,
        2.220446049250313e-16,
        0.0,
        0.0,
        0.0,
        0.7064132690429688,
        1.0
      ],
      "name": "Spring002"
    },
    {
      "mesh": 0,
      "name": "Spring002_02 - Default_0"
    },
    {
      "mesh": 1,
      "name": "Spring002_01 - Default_0"
    }
  ],
  "samplers": [
    {
      "magFilter": 9729,
      "minFilter": 9987,
      "wrapS": 10497,
      "wrapT": 10497
    }
  ],
  "scene": 0,
  "scenes": [
    {
      "name": "Sketchfab_Scene",
      "nodes": [
        0
      ]
    }
  ],
  "textures": [
    {
      "sampler": 0,
      "source": 0
    },
    {
      "sampler": 0,
      "source": 1
    }
  ]
}
