{
  "accessors": [
    {
      "bufferView": 2,
      "componentType": 5126,
      "count": 4485,
      "max": [
        1.4122589826583862,
        1.4376200437545776,
        1.4044549465179443
      ],
      "min": [
        -1.1786589622497559,
        -1.454908013343811,
        -1.5568050146102905
      ],
      "type": "VEC3"
    },
    {
      "bufferView": 2,
      "byteOffset": 53820,
      "componentType": 5126,
      "count": 4485,
      "max": [
        0.9999011158943176,
        0.9996763467788696,
        0.9999424815177917
      ],
      "min": [
        -0.9994767904281616,
        -0.9993826150894165,
        -0.9999978542327881
      ],
      "type": "VEC3"
    },
    {
      "bufferView": 3,
      "componentType": 5126,
      "count": 4485,
      "max": [
        0.997650682926178,
        0.9999480247497559,
        0.9999143481254578,
        1.0
      ],
      "min": [
        -0.9999995827674866,
        -0.9999088048934937,
        -0.9999362826347351,
        1.0
      ],
      "type": "VEC4"
    },
    {
      "bufferView": 1,
      "componentType": 5126,
      "count": 4485,
      "max": [
        0.9982669949531555,
        0.989982008934021
      ],
      "min": [
        0.0017559999832883477,
        0.001749000046402216
      ],
      "type": "VEC2"
    },
    {
      "bufferView": 0,
      "componentType": 5125,
      "count": 21438,
      "type": "SCALAR"
    }
  ],
  "asset": {
    "extras": {
      "author": "RaynaudL (https://sketchfab.com/fts_ltx)",
      "license": "CC-BY-4.0 (http://creativecommons.org/licenses/by/4.0/)",
      "source": "https://sketchfab.com/3d-models/beshr-bsc241-lowpoly-remake-8d694f6efbd74b869d4dbd76391afea2",
      "title": "Beshr - BSC241 - lowpoly remake"
    },
    "generator": "Sketchfab-12.65.0",
    "version": "2.0"
  },
  "bufferViews": [
    {
      "buffer": 0,
      "byteLength": 85752,
      "name": "floatBufferViews",
      "target": 34963
    },
    {
      "buffer": 0,
      "byteLength": 35880,
      "byteOffset": 85752,
      "byteStride": 8,
      "name": "floatBufferViews",
      "target": 34962
    },
    {
      "buffer": 0,
      "byteLength": 107640,
      "byteOffset": 121632,
      "byteStride": 12,
      "name": "floatBufferViews",
      "target": 34962
    },
    {
      "buffer": 0,
      "byteLength": 71760,
      "byteOffset": 229272,
      "byteStride": 16,
      "name": "floatBufferViews",
      "target": 34962
    }
  ],
  "buffers": [
    {
      "byteLength": 301032,
      "uri": "scene.bin"
    }
  ],
  "images": [
    {
      "uri": "textures/beshr_diffuse_baseColor.jpeg"
    },
    {
      "uri": "textures/beshr_diffuse_metallicRoughness.png"
    },
    {
      "uri": "textures/beshr_diffuse_normal.png"
    }
  ],
  "materials": [
    {
      "doubleSided": true,
      "name": "beshr_diffuse",
      "normalTexture": {
        "index": 2
      },
      "occlusionTexture": {
        "index": 1
      },
      "pbrMetallicRoughness": {
        "baseColorTexture": {
          "index": 0
        },
        "metallicFactor": 0.0,
        "metallicRoughnessTexture": {
          "index": 1
        },
        "roughnessFactor": 0.48539628591231815
      }
    }
  ],
  "meshes": [
    {
      "name": "defaultMaterial",
      "primitives": [
        {
          "attributes": {
            "NORMAL": 1,
            "POSITION": 0,
            "TANGENT": 2,
            "TEXCOORD_0": 3
          },
          "indices": 4,
          "material": 0,
          "mode": 4
        }
      ]
    }
  ],
  "nodes": [
    {
      "children": [
        1
      ],
      "matrix": [
        1.0,
        0.0,
        0.0,
        0.0,
        0.0,
        2.220446049250313e-16,
        -1.0,
        0.0,
        0.0,
        1.0,
        2.220446049250313e-16,
        0.0,
        0.0,
        0.0,
        0.0,
        1.0
      ],
      "name": "Sketchfab_model"
    },
    {
      "children": [
        2
      ],
      "name": "Collada visual scene group"
    },
    {
      "children": [
        3
      ],
      "matrix": [
        0.953264,
        0.301825,
        0.013729,
        0.0,
        -0.301616,
        0.953305,
        -0.015424,
        0.0,
        -0.017743,
        0.010562,
        0.999787,
        0.0,
        0.0,
        0.0,
        1.547694,
        1.0
      ],
      "name": "beshr_lp"
    },
    {
      "mesh": 0,
      "name": "defaultMaterial"
    }
  ],
  "samplers": [
    {
      "magFilter": 9729,
      "minFilter": 9987,
      "wrapS": 10497,
      "wrapT": 10497
    }
  ],
  "scene": 0,
  "scenes": [
    {
      "name": "Sketchfab_Scene",
      "nodes": [
        0
      ]
    }
  ],
  "textures": [
    {
      "sampler": 0,
      "source": 0
    },
    {
      "sampler": 0,
      "source": 1
    },
    {
      "sampler": 0,
      "source": 2
    }
  ]
}
